<?xml version="1.0" encoding="UTF-8"?>
<svg width="1501px" height="362px" viewBox="0 0 1501 362" version="1.1" xmlns="http://www.w3.org/2000/svg" xmlns:xlink="http://www.w3.org/1999/xlink">
    <!-- Generator: Sketch 52.5 (67469) - http://www.bohemiancoding.com/sketch -->
    <title>logo</title>
    <desc>Created with Sketch.</desc>
    <g id="Page-1" stroke="none" stroke-width="1" fill="none" fill-rule="evenodd">
        <g id="logo" fill="#000000">
            <path d="M150.846154,344.213462 C126.230646,344.213462 101.615508,339.905812 77,331.290385 C59.1537569,338.059649 38.5385785,341.444231 15.1538462,341.444231 C9.92305077,341.444231 5.15386769,341.136542 0.846153846,340.521154 C0.846153846,322.059523 9.30760769,276.521517 26.2307692,203.905769 C43.1539308,131.290022 51.6153846,90.2135092 51.6153846,80.675 C51.6153846,71.1364908 49.8461715,62.6750369 46.3076923,55.2903846 C42.7692131,47.9057323 39.1538646,42.3673262 35.4615385,38.675 L30.3846154,33.5980769 L32.2307692,22.0596154 C39.9231154,20.5211462 57.6921685,18.2903992 85.5384615,15.3673077 C113.384755,12.4442162 136.999903,10.9826923 156.384615,10.9826923 C231.461914,10.9826923 269,35.1362969 269,83.4442308 C269,105.905882 261.384692,124.213391 246.153846,138.367308 C230.923001,152.521225 212.077035,162.059591 189.615385,166.982692 C210.84626,169.444243 228.692235,177.059552 243.153846,189.828846 C257.615457,202.598141 264.846154,220.674883 264.846154,244.059615 C264.846154,272.982837 254.077031,296.905675 232.538462,315.828846 C210.999892,334.752018 183.769395,344.213462 150.846154,344.213462 L150.846154,344.213462 Z M135.153846,182.675 C129.615357,182.675 123.461572,183.136534 116.692308,184.059615 C104.692248,236.675263 97.0000169,274.828728 93.6153846,298.521154 C100.384649,302.521174 109.615326,304.521154 121.307692,304.521154 C139.153935,304.521154 152.538417,297.136612 161.461538,282.367308 C170.38466,267.598003 174.846154,250.905862 174.846154,232.290385 C174.846154,213.674907 171.538495,200.751959 164.923077,193.521154 C158.307659,186.290348 148.384682,182.675 135.153846,182.675 L135.153846,182.675 Z M129.153846,148.982692 C142.692375,148.982692 153.307654,143.90582 161,133.751923 C174.846223,116.213374 181.769231,96.75203 181.769231,75.3673077 C181.769231,53.9825854 174.384689,43.2903846 159.615385,43.2903846 L144.384615,45.1365385 C144.076922,57.1365985 137.615448,91.7516369 125,148.982692 L129.153846,148.982692 Z M282.384615,255.136538 C282.384615,216.982502 293.999884,187.290491 317.230769,166.059615 C340.461655,144.82874 369.153675,134.213462 403.307692,134.213462 C427.000118,134.213462 445.999928,139.367256 460.307692,149.675 C474.615456,159.982744 481.769231,173.751837 481.769231,190.982692 C481.769231,203.59814 477.923115,214.828797 470.230769,224.675 C462.538423,234.521203 453.153902,242.059589 442.076923,247.290385 C418.692191,257.751975 398.384702,264.059605 381.153846,266.213462 L369.615385,267.598077 C373.000017,287.905871 383.153762,298.059615 400.076923,298.059615 C407.461575,298.059615 415.61534,296.444247 424.538462,293.213462 C433.461583,289.982676 440.538435,286.675017 445.769231,283.290385 L453.615385,278.675 L468.384615,298.521154 L463.307692,303.598077 C461.461529,305.44424 457.076958,309.059588 450.153846,314.444231 C443.230735,319.828873 436.000038,324.521134 428.461538,328.521154 C420.923039,332.521174 411.307751,336.136522 399.615385,339.367308 C387.923018,342.598093 376.230828,344.213462 364.538462,344.213462 C338.384485,344.213462 318.153918,336.598153 303.846154,321.367308 C289.53839,306.136462 282.384615,284.05976 282.384615,255.136538 L282.384615,255.136538 Z M394.538462,215.213462 C403.461583,201.828779 407.923077,190.598122 407.923077,181.521154 C407.923077,172.444185 405.307718,167.905769 400.076923,167.905769 C392.384577,167.905769 385.307725,173.905709 378.846154,185.905769 C372.384583,197.905829 368.692312,214.982582 367.769231,237.136538 C376.692352,235.905763 385.61534,228.598144 394.538462,215.213462 L394.538462,215.213462 Z M498.384615,341.444231 L490.538462,341.444231 C490.538462,322.367212 494.923033,293.444425 503.692308,254.675 C512.461582,215.905575 516.846154,193.598106 516.846154,187.751923 C516.846154,181.90574 515.461552,176.213489 512.692308,170.675 C509.923063,165.136511 507.15386,160.982706 504.384615,158.213462 L500.230769,154.059615 L501.153846,147.136538 C519.307783,141.290355 550.999774,138.367308 596.230769,138.367308 C599.307708,145.444266 601.461532,152.828808 602.692308,160.521154 C630.692448,143.290298 654.230674,134.675 673.307692,134.675 C686.230834,134.675 696.384578,138.905727 703.769231,147.367308 C711.153883,155.828888 714.846154,165.982633 714.846154,177.828846 C714.846154,189.675059 711.461572,208.674869 704.692308,234.828846 C697.923043,260.982823 694.538462,277.982653 694.538462,285.828846 C694.538462,293.675039 695.615374,297.598077 697.769231,297.598077 L722.230769,291.136538 L730.538462,314.213462 C720.692258,321.598114 707.846233,328.444199 692,334.751923 C676.153767,341.059647 661.615451,344.213462 648.384615,344.213462 C622.230638,344.213462 609.153846,330.675135 609.153846,303.598077 C609.153846,291.905711 612.384583,272.828978 618.846154,246.367308 C625.307725,219.905637 628.538462,203.367341 628.538462,196.751923 C628.538462,190.136505 626.384637,186.828846 622.076923,186.828846 C616.538434,186.828846 609.153892,189.905738 599.923077,196.059615 C598.692302,201.598105 595.615409,214.982586 590.692308,236.213462 C580.846105,280.829069 575.923077,312.982594 575.923077,332.675 C560.846078,338.521183 535.000183,341.444231 498.384615,341.444231 L498.384615,341.444231 Z" id="Ben"></path>
            <path d="M824.461538,110.230769 L826.923077,101.615385 C828.153852,96.6922831 828.769231,93.2051385 828.769231,91.1538462 C828.769231,89.5128123 828.358978,87.9743662 827.538462,86.5384615 C826.717945,85.1025569 826.307692,83.7692369 826.307692,82.5384615 C826.307692,81.3076862 826.923071,78.8461723 828.153846,75.1538462 C836.359015,48.8973046 843.84612,31.4615815 850.615385,22.8461538 C857.384649,14.2307262 867.333268,9.92307692 880.461538,9.92307692 C886.205157,9.92307692 889.487175,11.7692123 890.307692,15.4615385 C881.282006,34.7436862 868.769311,66.3331138 852.769231,110.230769 L912.461538,110.230769 C923.948775,110.230769 929.692308,111.461526 929.692308,113.923077 C929.692308,118.025662 920.256505,121.205117 901.384615,123.461538 C882.512726,125.71796 864.461625,126.846154 847.230769,126.846154 C826.717846,184.692597 810.102628,240.076658 797.384615,293 C795.333323,301.205169 794.307692,307.153828 794.307692,310.846154 C794.307692,317.820548 796.56408,321.307692 801.076923,321.307692 C809.282092,321.307692 821.281972,314.025714 837.076923,299.461538 C852.871874,284.897363 861.384609,277.615385 862.615385,277.615385 C864.666677,277.615385 865.692308,278.846142 865.692308,281.307692 C865.692308,288.282086 863.43592,292.794862 858.923077,294.846154 C821.179298,328.897606 794.718025,345.923077 779.538462,345.923077 C770.102517,345.923077 765.384615,339.974418 765.384615,328.076923 C765.384615,321.512788 770.307643,302.230929 780.153846,270.230769 C781.384622,266.128185 794.512695,219.154295 819.538462,129.307692 C809.692258,130.948726 795.948806,131.769231 778.307692,131.769231 C768.871748,131.769231 764.153846,129.923095 764.153846,126.230769 C764.153846,123.35896 766.820486,119.974378 772.153846,116.076923 C777.487206,112.179468 781.794855,110.230769 785.076923,110.230769 L824.461538,110.230769 Z M1060.15385,164.384615 C1060.15385,167.666683 1057.07695,170.846138 1050.92308,173.923077 C1044.7692,177.000015 1039.23079,178.538462 1034.30769,178.538462 C1034.30769,226.538702 1021.795,267.563932 996.769231,301.615385 C971.743465,335.666837 946.9232,352.692308 922.307692,352.692308 C898.512702,352.692308 886.615385,335.461711 886.615385,301 C886.615385,291.564055 887.435889,282.128252 889.076923,272.692308 C891.128215,262.025588 894.820486,248.282135 900.153846,231.461538 C905.487206,214.640942 912.461495,196.384714 921.076923,176.692308 C929.692351,156.999902 940.256348,140.28212 952.769231,126.538462 C965.282114,112.794803 977.897372,105.923077 990.615385,105.923077 L994.923077,105.923077 C994.923077,100.179458 996.564086,95.2564308 999.846154,91.1538462 C1003.12822,87.0512615 1007.641,85 1013.38462,85 C1019.12823,85.4102585 1024.25639,97.4101385 1028.76923,121 C1033.28207,144.589862 1039.84611,156.794868 1048.46154,157.615385 C1056.25645,158.84616 1060.15385,161.102548 1060.15385,164.384615 L1060.15385,164.384615 Z M1017.07692,173.615385 C1013.3846,171.564092 1008.87182,164.282114 1003.53846,151.769231 C998.205102,139.256348 994.512831,133 992.461538,133 C979.743526,133 964.974443,151.769043 948.153846,189.307692 C931.333249,226.846342 920.871815,256.487071 916.769231,278.230769 C915.128197,287.666714 914.307692,296.282012 914.307692,304.076923 C914.307692,324.179588 920.051225,334.230769 931.538462,334.230769 C947.9488,334.230769 966.307591,317.512988 986.615385,284.076923 C1006.92318,250.640858 1017.07692,213.820714 1017.07692,173.615385 L1017.07692,173.615385 Z M1255.84615,112.076923 C1234.92297,146.948892 1215.43599,186.948492 1197.38462,232.076923 C1179.33324,277.205354 1170.30769,311.051169 1170.30769,333.615385 C1170.30769,341.000037 1171.9487,344.692308 1175.23077,344.692308 C1176.46154,344.692308 1180.4615,342.641046 1187.23077,338.538462 C1194.00003,334.435877 1197.99999,332.384615 1199.23077,332.384615 C1201.69232,332.384615 1202.92308,333.615372 1202.92308,336.076923 C1202.92308,341.000025 1198.4103,346.538431 1189.38462,352.692308 C1180.35893,358.846185 1171.33338,361.923077 1162.30769,361.923077 C1150.4102,361.923077 1144.46154,353.102652 1144.46154,335.461538 C1144.46154,319.461458 1147.74356,300.794978 1154.30769,279.461538 C1160.87183,258.128098 1171.12814,230.84632 1185.07692,197.615385 C1199.02571,164.384449 1206,147.564105 1206,147.153846 C1208.05129,141.820486 1209.07692,137.717963 1209.07692,134.846154 C1209.07692,132.794862 1208.46154,131.769231 1207.23077,131.769231 C1205.17948,131.769231 1200.6667,135.461502 1193.69231,142.846154 C1176.05119,162.53856 1150.82068,196.179249 1118,243.769231 C1085.17932,291.359212 1068.35898,320.692252 1067.53846,331.769231 C1067.1282,334.64104 1063.23081,338.641 1055.84615,343.769231 C1048.4615,348.897462 1042.30772,351.461538 1037.38462,351.461538 C1034.51281,351.461538 1032.8718,350.025655 1032.46154,347.153846 C1033.28206,348.384622 1040.97429,327.872006 1055.53846,285.615385 C1070.10264,243.358763 1080.46151,212.794966 1086.61538,193.923077 C1088.25642,188.999975 1089.07692,185.307705 1089.07692,182.846154 C1089.07692,181.20512 1088.76923,179.666674 1088.15385,178.230769 C1087.53846,176.794865 1087.23077,175.666671 1087.23077,174.846154 C1087.23077,173.20512 1087.84615,170.53848 1089.07692,166.846154 C1098.51287,140.589612 1106.51279,123.256452 1113.07692,114.846154 C1119.64106,106.435855 1129.69224,102.230769 1143.23077,102.230769 C1148.56413,102.230769 1151.64102,104.076905 1152.46154,107.769231 C1118.82034,176.692652 1098.71798,225.922929 1092.15385,255.461538 C1159.84649,146.332788 1211.74341,91.7692308 1247.84615,91.7692308 C1256.05132,91.7692308 1260.15385,94.4358708 1260.15385,99.7692308 C1260.15385,103.461557 1258.71796,107.56408 1255.84615,112.076923 L1255.84615,112.076923 Z M1391.84615,2.53846154 C1391.84615,7.87182154 1387.94876,14.6409846 1380.15385,22.8461538 C1372.35894,31.0513231 1367.43591,37.4102338 1365.38462,41.9230769 C1360.05126,55.4616062 1354.30772,63.0512738 1348.15385,64.6923077 C1339.94868,64.6923077 1335.84615,57.9231446 1335.84615,44.3846154 C1335.84615,35.7691877 1342.20506,26.3333846 1354.92308,16.0769231 C1367.64109,5.82046154 1378.7179,0.692307692 1388.15385,0.692307692 C1390.20514,0.692307692 1391.4359,1.30768615 1391.84615,2.53846154 L1391.84615,2.53846154 Z M1356.76923,107.769231 C1355.94871,109.000006 1353.17951,114.12816 1348.46154,123.153846 C1343.74357,132.179532 1339.74361,139.974326 1336.46154,146.538462 C1333.17947,153.102597 1328.6667,162.743526 1322.92308,175.461538 C1317.17946,188.179551 1312.0513,200.281994 1307.53846,211.769231 C1303.02562,223.256468 1298.30772,236.99992 1293.38462,253 C1288.46151,269.00008 1284.15386,284.99992 1280.46154,301 C1280.05128,302.230775 1279.84615,303.871785 1279.84615,305.923077 C1279.84615,310.846178 1281.89742,313.307692 1286,313.307692 C1288.46155,313.307692 1295.12815,310.2308 1306,304.076923 C1316.87185,297.923046 1323.9487,294.846154 1327.23077,294.846154 C1330.10258,294.846154 1331.74359,295.666658 1332.15385,297.307692 C1332.15385,302.230794 1321.69241,311.358908 1300.76923,324.692308 C1279.84605,338.025708 1265.48722,344.692308 1257.69231,344.692308 C1249.8974,344.692308 1246,341.000037 1246,333.615385 C1246,329.923058 1246.8205,325.615409 1248.46154,320.692308 C1252.97438,307.974295 1257.58972,294.846222 1262.30769,281.307692 C1267.02566,267.769163 1270.61537,257.307729 1273.07692,249.923077 C1275.53847,242.538425 1278.10255,234.948757 1280.76923,227.153846 C1283.43591,219.358935 1285.38461,213.51284 1286.61538,209.615385 C1287.84616,205.717929 1288.97435,201.820532 1290,197.923077 C1291.02565,194.025622 1291.74359,191.051292 1292.15385,189 C1292.5641,186.948708 1292.76923,184.897446 1292.76923,182.846154 C1292.76923,181.20512 1292.46154,179.666674 1291.84615,178.230769 C1291.23077,176.794865 1290.92308,175.666671 1290.92308,174.846154 C1290.92308,173.20512 1291.53846,170.53848 1292.76923,166.846154 C1301.79492,140.999871 1309.79484,123.769274 1316.76923,115.153846 C1323.74362,106.538418 1333.99993,102.230769 1347.53846,102.230769 C1352.87182,102.230769 1355.94871,104.076905 1356.76923,107.769231 L1356.76923,107.769231 Z M1500.76923,139.153846 C1500.76923,147.769274 1498.82053,155.461505 1494.92308,162.230769 C1491.02562,169.000034 1486.82054,172.384615 1482.30769,172.384615 C1477.38459,172.384615 1474.92308,168.692345 1474.92308,161.307692 C1474.92308,158.846142 1475.74358,154.333366 1477.38462,147.769231 C1479.02565,141.205095 1479.84615,136.487194 1479.84615,133.615385 C1479.84615,127.051249 1476.35901,123.769231 1469.38462,123.769231 C1464.46151,123.769231 1456.76928,127.153812 1446.30769,133.923077 C1435.8461,140.692342 1427.94874,146.743563 1422.61538,152.076923 C1414.82047,160.282092 1403.53854,182.743406 1388.76923,219.461538 C1373.99993,256.179671 1366.61538,284.589643 1366.61538,304.692308 C1366.61538,319.871871 1372.56404,327.461538 1384.46154,327.461538 C1399.6411,327.461538 1414.82044,321.615443 1430,309.923077 C1445.17956,298.230711 1457.48713,286.333394 1466.92308,274.230769 C1476.35902,262.128145 1481.28205,256.076923 1481.69231,256.076923 C1483.7436,256.89744 1484.76923,258.333323 1484.76923,260.384615 C1484.76923,266.538492 1479.8462,276.281985 1470,289.615385 C1460.1538,302.948785 1446.51291,315.666606 1429.07692,327.769231 C1411.64094,339.871855 1394.71803,345.923077 1378.30769,345.923077 C1353.28193,345.923077 1340.76923,331.35912 1340.76923,302.230769 C1340.76923,273.922935 1349.99991,239.871994 1368.46154,200.076923 C1386.92317,160.281852 1402.92301,137.307723 1416.46154,131.153846 C1422.61542,128.692295 1429.28202,125.615403 1436.46154,121.923077 C1443.64106,118.230751 1449.79485,115.358985 1454.92308,113.307692 C1460.05131,111.2564 1465.69228,110.230769 1471.84615,110.230769 C1491.1283,110.230769 1500.76923,119.871698 1500.76923,139.153846 L1500.76923,139.153846 Z" id="tonic"></path>
        </g>
    </g>
</svg>